<!-- Generator: Adobe Illustrator 19.0.0, SVG Export Plug-In  -->
<svg version="1.1"
	 xmlns="http://www.w3.org/2000/svg" xmlns:xlink="http://www.w3.org/1999/xlink" xmlns:a="http://ns.adobe.com/AdobeSVGViewerExtensions/3.0/"
	 x="0px" y="0px" width="557.8px" height="554.7px" viewBox="0 0 557.8 554.7"
	 style="overflow:scroll;enable-background:new 0 0 557.8 554.7;" xml:space="preserve">
<style type="text/css">
	.st0{fill:#971B22;}
	.st1{fill:#BE1E2D;}
	.st2{fill:#F2F2F2;}
</style>
<defs>
</defs>
<path id="XMLID_26_" class="st0" d="M439.7,523.4l12.3-77.3c-9.8-3.7-20.4-5.7-31.4-5.7c-48.5,0.2-87.7,39.6-87.6,88.1
	c0,5.4,0.5,10.7,1.5,15.8l62.7,10C417.4,557.5,436.5,543.6,439.7,523.4z"/>
<path id="XMLID_25_" class="st1" d="M118.6,509.9l215.9,34.4c-0.9-5.1-1.4-10.4-1.5-15.8c-0.2-48.5,39.1-88,87.6-88.1
	c11.1,0,21.7,2,31.4,5.7"/>
<path id="XMLID_24_" class="st1" d="M254.3,23.9l-44.5,319l-63.3-10.1c-5.8-1.9-13.5-2-19.7-3.1C65.1,318.1,9.3,347.4,0,396.9"/>
<polyline id="XMLID_23_" class="st1" points="456.2,424.6 507.2,59.2 254.3,23.9 "/>
<path id="XMLID_22_" class="st2" d="M557.8,162.5c-3.3,20.2-22.5,34-42.6,30.7l-302.8-49.2c-20.2-3.3-34-22.5-30.7-42.6l11.5-70.7"
	/>
<path id="XMLID_21_" class="st2" d="M235.8,0l302.8,49.2"/>
</svg>